# xmcd CD database file
#
# Track frame offsets:
#	150
#	10872
#	22070
#	40447
#	54052
#	66252
#	79167
#	91207
#	100692
#	113252
#
# Disc length: 1786 seconds
#
# Revision: 0
# Processed by: cddbd v1.5.1PL0 Copyright (c) Steve Scherf et al.
# Submitted via: CDex 1.50Beta7
#
DISCID=6d06f80a
DTITLE=Dusty Britches - Original Recipes and Cowboy Cuisines
DYEAR=1900
DGENRE=Country
TTITLE0=I Got To Talk To You
TTITLE1=Used To Be
TTITLE2=Cowboy Wedding Song
TTITLE3=Dream Lady
TTITLE4=Crazy Friends Of Mine
TTITLE5=Sort Of Sudden Like
TTITLE6=Christopher's Waltz
TTITLE7=Long Ago Love
TTITLE8=The Right Tear Drop
TTITLE9=Four Corner Pines
EXTD=
EXTT0=
EXTT1=
EXTT2=
EXTT3=
EXTT4=
EXTT5=
EXTT6=
EXTT7=
EXTT8=
EXTT9=
PLAYORDER=
